# xmcd CD Database Entry
#
# Track frame offsets:
# 151
# 16749
# 35762
# 55526
# 69663
# 85257
# 100572
# 115093
# 134254
# 155273
# 175803
# 189418
#
# Disc length: 2680 seconds
#
# Revision: 3
# Processed by: cddbd v1.4PL0 Copyright (c) Steve Scherf et al.
# Submitted via: tcd 2.0b
#
DISCID=8d0a760c
DTITLE=Tri-Power - Eternaglide
DYEAR=1900
DGENRE=
TTITLE0=Eternaglide
TTITLE1=Synthetic Life
TTITLE2=Shadwos of Oblivion
TTITLE3=Anger 101
TTITLE4=Delta 88
TTITLE5=Citizen Crazy
TTITLE6=Refuge
TTITLE7=Power 62
TTITLE8=Silent Call
TTITLE9=Live Forever
TTITLE10=Country Bumpkin
TTITLE11=Just Like Eternaglide
EXTD=
EXTT0=
EXTT1=
EXTT2=
EXTT3=
EXTT4=
EXTT5=
EXTT6=
EXTT7=
EXTT8=
EXTT9=
EXTT10=
EXTT11=
PLAYORDER=
